# xmcd
#
# Track frame offsets: 
#        150
#        28149
#        59030
#        81115
#        103194
#        122151
#        142240
#        159532
#        186395
#        208528
#
# Disc length: 3118 seconds
#
# Revision: 0
# Processed by: cddbd v1.5.2PL0 Copyright (c) Steve Scherf et al.
# Submitted via: ExactAudioCopy v1.0b3
#
DISCID=9a0c2c0a
DTITLE=Phi Nhung, Hoai Nam - Thu Cho Me
DYEAR=1996
DGENRE=
TTITLE0=Hoai Nam - Thu cho Me
TTITLE1=Phi Nhung - Tren nhip cau tre
TTITLE2=Phi Nhung - Thanh pho sau lung
TTITLE3=Phi Nhung - Han Tha La
TTITLE4=Phi Nhung - Sau nhung lan goi moi
TTITLE5=Hoai Nam - Tinh hoai huong
TTITLE6=Phi Nhung - Chieu Tay do
TTITLE7=Phi Nhung - Pho dem
TTITLE8=Phi Nhung - Cay dan bo quen
TTITLE9=Phi Nhung - Thuyen xa ben do
EXTD=
EXTT0=
EXTT1=
EXTT2=
EXTT3=
EXTT4=
EXTT5=
EXTT6=
EXTT7=
EXTT8=
EXTT9=
PLAYORDER=
